# xmcd
#
# Track frame offsets:
# 150
# 22085
# 47375
# 71978
# 87455
# 111685
# 131655
# 151855
# 174820
# 200230
# 226385
#
# Disc length: 3289 seconds
#
#
# Revision: 0
# Processed by: cddbd v1.5.2PL0 Copyright (c) Steve Scherf et al.
# Submitted via: FreeRIP 2.942 
#
DISCID=9b0cd70b
DTITLE=Highway QCs - Im Still Here
DYEAR=1997
DGENRE=Gospel
TTITLE0=Things I used To Do
TTITLE1=Im Still Here
TTITLE2=Father Along
TTITLE3=All Men Are Made By God
TTITLE4=Saved and Sanctified
TTITLE5=Rock My Soul
TTITLE6=Come and Go To That Land
TTITLE7=There's Something On my Mind
TTITLE8=Devotion Time
TTITLE9=Everything
TTITLE10=Spirit of The Living Room
EXTD=
EXTT0=
EXTT1=
EXTT2=
EXTT3=
EXTT4=
EXTT5=
EXTT6=
EXTT7=
EXTT8=
EXTT9=
EXTT10=
PLAYORDER=
